# xmcd
#
# Track frame offsets: 
#        150
#        19043
#        48663
#        66071
#        81538
#        119126
#
# Disc length: 1765 seconds
#
# Revision: 0
# Processed by: cddbd v1.5.2PL0 Copyright (c) Steve Scherf et al.
# Submitted via: ExactAudioCopy v0.99pb3
#
DISCID=5406e306
DTITLE=Johnny Cash - The Johnny Cash Show
DYEAR=1900
DGENRE=Country
TTITLE0=Sunday Morning Coming Down
TTITLE1=Come Along and Ride This Train (medley)
TTITLE2=These Hands
TTITLE3=I'm Gonna Try To Be That Way
TTITLE4=Come Along and Ride This Train II (medley)
TTITLE5=Here Was A Man
EXTD=
EXTT0=
EXTT1=
EXTT2=
EXTT3=
EXTT4=
EXTT5=
PLAYORDER=
